<svg xmlns="http://www.w3.org/2000/svg" width="384" height="200" viewBox="0 0 384 200" fill="none">
<path d="M1.5 24C1.5 18.201 6.20101 13.5 12 13.5H372C377.799 13.5 382.5 18.201 382.5 24V188C382.5 193.799 377.799 198.5 372 198.5H12C6.20101 198.5 1.5 193.799 1.5 188V24Z" fill="white" stroke="#F0F2FA" stroke-width="3"/>



<mask id="mask0" mask-type="alpha" maskUnits="userSpaceOnUse" x="256" y="0" width="112" height="196">
<rect x="256" width="112" height="196" fill="#C4C4C4"/>
</mask>
<g mask="url(#mask0)">
<path d="M290.097 161.228C290.097 161.228 292.029 161.453 293.433 163.567C295.233 166.267 295.847 169.146 294.706 171.531C293.565 173.87 293.301 174.455 293.082 175.715C292.95 176.48 293.653 179.134 293.872 179.719C294.223 180.934 293.301 181.069 293.301 181.069C293.696 181.924 293.258 182.509 293.038 182.509C291.941 182.374 291.282 178.999 290.58 177.56C290.58 177.56 291.677 181.519 291.853 183.409C291.985 185.163 290.317 185.028 289.834 183.139C289.834 183.139 288.473 182.644 287.903 180.889C287.332 179.134 286.454 175.625 286.761 173.465C287.069 171.306 288.21 166.267 288.21 166.267L290.097 161.228Z" fill="#FAC2A8"/>
<path d="M288.737 169.278C289 170.043 289.219 170.853 289.439 171.663C289.614 172.473 289.79 173.282 289.834 174.137C289.834 174.362 289.834 174.542 289.79 174.767C289.746 174.947 289.746 175.127 289.79 175.352C289.834 175.712 290.01 176.072 290.229 176.342C290.492 176.612 290.844 176.747 291.107 176.567C291.239 176.477 291.37 176.342 291.414 176.207C291.502 176.072 291.546 175.892 291.546 175.712C291.59 175.307 291.546 174.902 291.546 174.497C291.546 174.092 291.546 173.642 291.634 173.237C291.765 172.383 292.116 171.573 292.687 170.943C292.95 170.628 293.258 170.358 293.477 169.998C293.697 169.683 293.872 169.323 293.96 168.918C294.179 168.153 294.048 167.298 293.653 166.579C294.135 167.253 294.355 168.108 294.179 168.963C294.048 169.818 293.477 170.538 292.95 171.123C292.468 171.753 292.16 172.473 292.029 173.282C291.897 174.047 291.985 174.857 291.941 175.712C291.897 175.937 291.897 176.162 291.765 176.387C291.634 176.567 291.502 176.792 291.282 176.882C291.063 177.017 290.8 177.017 290.58 176.927C290.361 176.837 290.141 176.702 290.01 176.567C289.702 176.252 289.527 175.802 289.483 175.352C289.439 175.127 289.483 174.902 289.527 174.677C289.571 174.497 289.571 174.272 289.571 174.092C289.571 173.282 289.439 172.473 289.307 171.663C289.132 170.898 288.912 170.088 288.737 169.278Z" fill="#DC918B"/>
<path d="M289.044 175.177C289.088 175.897 289.132 176.572 289.22 177.246C289.307 177.921 289.483 178.596 289.702 179.226C289.79 179.541 289.966 179.856 290.097 180.171C290.229 180.486 290.405 180.756 290.58 181.116C290.712 181.431 290.8 181.881 290.624 182.196C290.492 182.556 290.185 182.78 289.834 182.915C290.141 182.735 290.405 182.466 290.492 182.151C290.58 181.836 290.492 181.521 290.361 181.206C290.229 180.936 290.01 180.621 289.834 180.306C289.658 179.991 289.527 179.676 289.395 179.316C289.132 178.641 288.956 177.966 288.868 177.246C288.737 176.617 288.737 175.852 289.044 175.177Z" fill="#DC918B"/>
<path d="M292.379 176.031C292.335 176.436 292.379 176.841 292.511 177.201C292.555 177.381 292.686 177.516 292.774 177.696C292.862 177.875 292.95 178.1 292.994 178.28C293.213 179.09 293.345 179.9 293.389 180.71C293.169 179.945 292.994 179.135 292.686 178.415C292.598 178.235 292.511 178.055 292.423 177.92C292.335 177.741 292.247 177.516 292.247 177.291C292.203 176.841 292.247 176.436 292.379 176.031Z" fill="#DC918B"/>
<path d="M288.123 161.226L287.025 166.175C287.025 166.175 292.951 165.546 296.462 169.55L297.428 162.261C297.472 162.261 295.146 160.191 288.123 161.226Z" fill="#EF3F54"/>
<path d="M288.122 161.229C288.122 161.229 286.279 155.11 288.078 150.656C289.878 146.201 292.468 126.405 294.136 119.026C295.013 115.157 298.657 110.028 300.851 109.218C302.607 108.543 303.09 127.8 303.441 130.274C301.29 136.618 297.91 145.707 297.91 146.516C297.91 153.535 294.662 163.029 294.662 163.029C294.662 163.029 291.458 161.724 288.122 161.229Z" fill="#BD1A3B"/>
<path d="M296.461 144.039L295.056 175.039C295.056 175.039 304.845 180.303 312.57 180.663C318.144 208.873 316.827 210.807 317.31 213.507C317.574 214.857 319.022 237.263 318.89 238.073C318.715 238.882 318.583 240.277 318.803 241.222C318.978 241.942 318.539 245.676 318.539 245.676C318.539 245.676 320.778 246.351 323.631 246.666C326.484 246.981 330.171 245.946 331.268 245.946C331.268 245.946 330.961 243.967 331.268 242.707C331.532 241.672 330.61 240.367 330.961 239.242C331.268 238.118 331.707 232.134 331.707 225.7C331.707 218.006 331.268 211.707 330.478 209.413C330.785 188.716 330.522 176.658 330.478 175.579C330.346 170.764 329.732 167.165 329.732 165.86C329.732 164.556 328.766 143.814 328.766 143.814L296.461 144.039Z" fill="#474E64"/>
<path d="M307.784 169.057C307.916 170.362 308.047 171.712 308.179 173.062C308.311 174.411 308.398 175.716 308.486 177.066V177.336H308.223H305.589H305.37V177.111C305.326 175.941 305.282 174.771 305.238 173.602C305.194 172.432 305.194 171.262 305.15 170.092L305.282 170.227C304.624 170.137 304.009 170.047 303.351 169.957H303.307V169.912C303.395 169.552 303.526 169.237 303.614 168.877C303.526 169.237 303.482 169.597 303.395 169.912L303.351 169.822C304.009 169.867 304.667 169.912 305.282 169.957H305.414V170.092C305.501 171.262 305.589 172.432 305.677 173.557C305.765 174.726 305.809 175.896 305.896 177.021L305.633 176.796H308.267L308.047 177.066C308.003 175.716 307.916 174.411 307.916 173.062C307.784 171.712 307.784 170.407 307.784 169.057Z" fill="#343948"/>
<path d="M330.479 162.531L330.435 166.13C330.435 166.13 318.101 168.425 315.95 168.56C313.799 168.65 312.57 164.871 312.57 164.871L314.809 162.756L330.479 162.531Z" fill="#EF3F54"/>
<path d="M294.88 161.544L294.441 165.144C294.441 165.144 302.254 167.798 304.361 168.158C306.468 168.563 308.224 165.009 308.224 165.009L306.292 162.624L294.88 161.544Z" fill="#EF3F54"/>
<path d="M295.056 174.996C295.056 174.996 296.11 200.236 296.11 201.361C296.11 202.486 296.9 239.244 296.593 240.054C296.285 240.864 295.802 244.868 295.802 244.868C295.802 244.868 299.094 246.218 301.245 246.353C303.22 246.488 304.186 246.623 309.585 245.318C309.146 241.989 309.19 238.254 309.19 237.13C309.19 236.005 310.331 223.182 310.331 221.382C310.331 219.583 311.253 209.145 310.155 204.645C309.804 203.296 311.121 180.485 311.121 180.485C311.121 180.485 303.352 179.135 295.056 174.996Z" fill="#343948"/>
<path d="M294.134 166.31V170.314C294.134 170.314 299.797 174.543 315.949 173.733C332.102 172.923 330.785 171.979 330.785 171.979L330.478 165.185L294.134 166.31Z" fill="#31374C"/>
<path d="M331.356 110.789C331.356 110.789 328.898 109.619 324.201 108.269C321.129 107.414 318.539 106.829 315.115 106.829C309.365 106.784 302.781 108.584 300.938 109.169C299.007 109.799 296.812 116.818 296.373 124.286C296.022 130.09 295.32 138.594 294.793 148.582C294.486 154.116 292.51 163.024 294.178 166.309C314.676 172.743 330.522 166.129 330.522 166.129C332.76 161.855 330.61 156.321 332.673 131.53C333.638 119.427 331.356 110.789 331.356 110.789Z" fill="#BD1A3B"/>
<path d="M300.893 109.216C300.367 109.441 300.016 109.936 299.752 110.386C299.445 110.881 299.225 111.376 299.006 111.916C298.567 112.951 298.26 114.03 297.953 115.155C297.382 117.36 297.031 119.564 296.767 121.814C296.636 122.939 296.592 124.064 296.504 125.188L296.285 128.608C296.153 130.857 295.977 133.152 295.802 135.402C295.451 139.946 295.143 144.49 294.704 148.989C294.309 153.534 293.87 158.033 293.344 162.577L295.275 135.357L295.758 128.563L295.977 125.144C296.065 124.019 296.109 122.849 296.285 121.724C296.548 119.475 296.987 117.225 297.645 115.02C297.953 113.94 298.348 112.861 298.83 111.826C299.05 111.331 299.357 110.791 299.664 110.341C299.972 109.846 300.367 109.396 300.893 109.216Z" fill="#E0363C"/>
<path d="M320.821 93.6929L307.478 94.0978C307.478 94.0978 308.136 100.982 308.18 110.43C308.18 112.229 309.146 114.749 309.146 114.749C309.146 114.749 314.94 113.984 320.865 107.28C320.426 105.526 320.821 93.6929 320.821 93.6929Z" fill="#DC918B"/>
<path d="M307.828 168.653C306.336 147.687 310.33 118.892 310.637 116.778L308.969 114.843L309.364 114.483L311.208 116.598V116.733C311.164 117.047 306.863 147.012 308.399 168.608L307.828 168.653Z" fill="#E0363C"/>
<path d="M283.03 72.4141C283.03 72.4141 279.518 60.6262 274.163 65.6653C268.808 70.7044 276.533 86.0917 285.136 82.1774C285.136 82.2224 287.156 80.4677 283.03 72.4141Z" fill="#F7AB8D"/>
<path d="M271.048 28.9082C264.552 30.9328 267.844 43.7106 269.16 47.085C274.033 59.6828 274.998 70.8858 279.212 74.8901C279.212 74.8901 281.626 25.6238 271.048 28.9082Z" fill="#2B2E3A"/>
<path d="M339.124 69.4873C339.08 70.0272 337.72 84.1097 329.38 82.625L330.038 73.8515L339.124 69.4873Z" fill="#2B2E3A"/>
<path d="M330.611 23.598C330.611 23.598 281.451 17.4791 274.121 32.3265C268.371 43.9344 274.955 55.1374 278.115 69.6699C280.486 80.5129 280.881 88.1166 281.934 89.9163C286.499 98.0148 298.131 105.214 303.573 105.034C315.6 104.629 325.915 94.2355 329.69 86.6319C331.797 82.3126 332.367 69.1749 331.358 53.7427C330.524 40.515 332.674 28.5472 330.611 23.598Z" fill="#FAC2A8"/>
<path d="M308.812 56.1366C309.641 55.9503 310.17 55.1302 309.993 54.3049C309.817 53.4797 309.002 52.9618 308.173 53.1481C307.344 53.3345 306.815 54.1546 306.992 54.9798C307.169 55.8051 307.984 56.323 308.812 56.1366Z" fill="#31374C"/>
<path d="M308.986 54.3211C309.221 54.2625 309.366 54.0195 309.309 53.7783C309.252 53.5372 309.015 53.3892 308.779 53.4478C308.543 53.5064 308.399 53.7495 308.456 53.9906C308.513 54.2318 308.75 54.3797 308.986 54.3211Z" fill="white"/>
<path opacity="0.2" d="M279.958 66.0234C279.958 67.1032 281.713 67.958 283.864 67.913C286.015 67.868 287.727 66.9682 287.727 65.8884C287.727 64.8086 285.971 63.9538 283.82 63.9988C281.67 64.0438 279.958 64.9436 279.958 66.0234Z" fill="#EF3F54"/>
<path opacity="0.2" d="M306.996 62.245C307.479 63.3698 309.717 63.4598 311.956 62.38C314.194 61.3452 315.599 59.5905 315.116 58.4657C314.633 57.3409 312.395 57.2509 310.156 58.3307C307.874 59.3655 306.469 61.1202 306.996 62.245Z" fill="#EF3F54"/>
<path d="M284.542 60.993C285.371 60.8066 285.9 59.9866 285.723 59.1613C285.547 58.3361 284.731 57.8182 283.903 58.0046C283.074 58.191 282.545 59.011 282.722 59.8362C282.899 60.6615 283.714 61.1794 284.542 60.993Z" fill="#31374C"/>
<path d="M284.716 59.1737C284.951 59.1151 285.096 58.872 285.039 58.6309C284.982 58.3897 284.744 58.2417 284.509 58.3004C284.273 58.359 284.129 58.602 284.186 58.8432C284.243 59.0843 284.48 59.2323 284.716 59.1737Z" fill="white"/>
<path d="M275.613 50.2312C276.974 48.2066 278.686 46.5868 282.373 46.0469C284.304 46.0019 286.323 45.777 284.392 43.9773C281.1 41.2778 273.857 45.822 273.594 51.221C273.243 53.5606 274.867 51.7159 275.613 50.2312Z" fill="#2B2E3A"/>
<path d="M312.307 43.2145C310.464 41.5948 308.401 40.515 304.714 40.9649C302.826 41.4149 300.851 41.7748 302.256 39.5252C304.758 36.0159 312.878 38.5354 314.502 43.6195C315.467 45.824 313.448 44.4743 312.307 43.2145Z" fill="#2B2E3A"/>
<path opacity="0.6" d="M297.385 45.2385C297.385 45.2385 294.576 49.4228 288.123 50.1877C288.123 50.1877 294.62 59.681 291.415 72.8637C291.415 72.8637 298.482 76.0581 303.618 69.5792C303.574 69.5792 297.078 58.4212 297.385 45.2385Z" fill="url(#paint0_linear)"/>
<path d="M329.205 65.7532C324.64 58.3745 326.483 50.3659 321.567 42.5823C317.88 36.8234 317.09 26.3852 319.241 22.7859C319.241 22.7859 332.014 18.4217 332.716 18.8266C336.886 21.2561 342.548 33.9889 340.31 59.9042L329.205 65.7532Z" fill="#2B2E3A"/>
<path d="M330.083 62.38C330.083 62.38 331.312 54.9563 337.676 57.0709C344.041 59.2305 344.743 78.0823 330.346 74.9778C330.346 74.9778 329.029 70.1186 330.083 62.38Z" fill="#FAC2A8"/>
<path d="M338.335 61.8412C337.589 61.4363 336.711 61.1663 335.877 61.2113C335.043 61.2113 334.253 61.6613 333.771 62.3361C333.288 63.011 332.981 63.7759 332.761 64.5857C332.542 65.3956 332.454 66.2505 332.366 67.0603L332.059 66.7904C332.893 66.6554 333.727 66.7454 334.473 67.1953C335.219 67.6002 335.658 68.4101 335.746 69.2199C335.834 69.6249 335.746 70.0298 335.658 70.4347C335.526 70.8397 335.263 71.1546 334.956 71.4245C334.341 71.9195 333.595 72.2344 332.805 72.3694C333.551 72.1444 334.253 71.7845 334.78 71.2446C335.043 70.9746 335.263 70.6597 335.351 70.3447C335.439 69.9848 335.482 69.6699 335.395 69.3099C335.263 68.59 334.868 67.9601 334.253 67.6452C333.639 67.2853 332.849 67.2403 332.19 67.3753L331.883 67.4202L331.927 67.1053C332.015 66.2504 332.147 65.3956 332.366 64.5407C332.585 63.6859 332.937 62.831 333.507 62.1562C334.078 61.4363 335 60.9864 335.921 61.0314C336.799 60.9414 337.633 61.3013 338.335 61.8412Z" fill="#DC918B"/>
<path d="M291.37 72.8166C291.37 72.8166 298.569 81.275 303.573 69.5322C303.573 69.5772 298.744 72.7266 291.37 72.8166Z" fill="#DC918B"/>
<path d="M265.475 22.9663C269.644 17.4323 277.37 6.45422 288.474 4.96948C294.005 4.33959 294.576 5.59937 294.576 5.59937C294.005 4.78951 291.854 2 291.854 2C301.116 5.01447 331.49 -4.88379 332.675 18.872C334.518 20.4018 335.66 21.6616 335.791 22.2914C336.45 25.3059 320.341 41.953 320.429 34.2593C320.78 27.7355 321.175 26.8806 318.541 25.5309C313.757 23.0563 306.295 23.9112 290.099 31.5148C282.505 35.0692 268.371 40.5133 256.52 29.7151C256.52 29.6702 261.305 28.5004 265.475 22.9663Z" fill="#2B2E3A"/>
<path d="M289.133 81.5938C296.99 86.408 293.654 93.7417 303.969 92.392C313.757 90.0524 315.644 73.0903 315.644 73.0903C301.95 85.9131 289.133 81.5938 289.133 81.5938Z" fill="#31374C"/>
<path d="M311.869 85.417C304.232 86.6318 300.677 89.6913 299.053 92.2108C300.238 92.6158 301.818 92.7057 303.969 92.4358C307.568 91.5359 310.114 88.7014 311.869 85.417Z" fill="#F97A7A"/>
<path d="M289.133 81.5939C290.801 82.5837 291.942 83.7085 292.82 84.8333C293.215 85.3282 306.778 84.7883 314.503 78.5794C315.337 75.4749 315.6 73.0903 315.6 73.0903C301.95 85.9131 289.133 81.5939 289.133 81.5939Z" fill="white"/>
<path d="M290.142 82.2692C290.494 82.4942 290.801 82.7641 291.108 83.0341C291.415 83.304 291.723 83.574 292.03 83.8889C292.337 84.2039 292.6 84.5188 292.864 84.8338C293.917 86.1385 294.707 87.6233 295.585 89.018C296.024 89.7379 296.507 90.4128 297.078 90.9527C297.385 91.2226 297.692 91.4476 298.043 91.6725C298.394 91.8525 298.745 92.0325 299.141 92.1225C299.316 92.1675 299.536 92.2124 299.711 92.2574C299.887 92.3024 300.106 92.3474 300.282 92.3474C300.677 92.3924 301.072 92.4374 301.467 92.4374C301.862 92.4374 302.257 92.4374 302.696 92.3924C303.091 92.3924 303.486 92.3024 303.881 92.2574C305.724 91.8075 307.436 90.7277 308.797 89.333C310.158 87.9382 311.211 86.2735 312.089 84.4738C312.967 82.7191 313.625 80.8295 314.152 78.9398C314.415 77.995 314.679 77.0051 314.854 76.0603C315.074 75.0705 315.249 74.1256 315.381 73.1358L315.732 73.3158L314.371 74.5306C313.889 74.9355 313.45 75.3404 312.967 75.7004C312.484 76.0603 312.001 76.4652 311.474 76.7802C310.992 77.1401 310.465 77.5 309.938 77.815C309.411 78.1299 308.885 78.4449 308.358 78.7598C307.831 79.0748 307.261 79.3447 306.734 79.6147C306.163 79.8846 305.637 80.1096 305.066 80.3345C304.495 80.5595 303.925 80.7845 303.354 80.9644C302.784 81.1444 302.213 81.3244 301.599 81.5043C301.028 81.6843 300.413 81.8193 299.843 81.9093C299.228 82.0442 298.658 82.1342 298.043 82.2242C297.429 82.3142 296.858 82.3592 296.244 82.4042C295.015 82.4492 293.829 82.4492 292.6 82.3592C291.415 82.2242 290.186 82.0442 289.045 81.6843C289.44 81.8193 289.835 82.0442 290.142 82.2692ZM292.688 82.1792C293.873 82.2692 295.102 82.2692 296.287 82.1342C296.902 82.0892 297.473 81.9993 298.087 81.9093C298.702 81.8193 299.272 81.7293 299.843 81.5943C300.413 81.4593 301.028 81.3244 301.599 81.1444C302.169 80.9644 302.74 80.7845 303.31 80.6045C303.881 80.3795 304.452 80.1996 304.978 79.9296C305.549 79.7047 306.076 79.4347 306.602 79.1648C307.129 78.8948 307.656 78.6248 308.182 78.3099C308.709 77.995 309.236 77.725 309.719 77.3651C310.245 77.0501 310.728 76.6902 311.211 76.3303C311.694 76.0153 312.177 75.6104 312.66 75.2504C313.142 74.8905 313.581 74.4856 314.064 74.0806L315.425 72.8659L315.864 72.4609L315.776 73.0458C315.644 74.0357 315.469 75.0255 315.293 76.0153C315.074 77.0051 314.854 77.995 314.591 78.9398C314.064 80.8744 313.362 82.7641 312.484 84.5638C311.606 86.3635 310.509 88.0732 309.104 89.5129C307.7 90.9527 305.944 92.0775 303.969 92.4824C303.574 92.5274 303.135 92.5724 302.74 92.5724C302.345 92.6174 301.906 92.6174 301.511 92.6174C301.116 92.6174 300.677 92.5724 300.282 92.5274C300.062 92.5274 299.887 92.4824 299.667 92.4374C299.448 92.3924 299.272 92.3474 299.053 92.2574C298.658 92.1225 298.263 91.9425 297.912 91.7625C297.56 91.5376 297.209 91.3126 296.902 90.9977C296.287 90.4128 295.805 89.7379 295.366 89.018C294.927 88.2981 294.532 87.5783 294.137 86.8584C293.742 86.1385 293.259 85.4636 292.776 84.7888C292.513 84.4738 292.249 84.1589 291.986 83.8439C291.723 83.529 291.415 83.259 291.108 82.9891C290.801 82.7191 290.494 82.4492 290.142 82.2242C289.835 81.9543 289.484 81.7293 289.133 81.5043C290.274 81.9093 291.459 82.0892 292.688 82.1792Z" fill="#DC918B"/>
<path d="M312.747 73.0896C312.747 73.0896 313.142 72.9097 313.669 72.8197C313.8 72.7747 313.976 72.7747 314.108 72.7297C314.283 72.6847 314.459 72.7297 314.591 72.6847C314.766 72.6847 314.942 72.6847 315.117 72.7297C315.205 72.7297 315.293 72.7747 315.381 72.7747L315.644 72.8647C315.82 72.9097 315.951 72.9997 316.127 73.0896C316.258 73.1796 316.434 73.3146 316.566 73.4046C316.697 73.5396 316.829 73.6296 316.961 73.7645C317.049 73.8995 317.18 73.9895 317.268 74.1245C317.356 74.2145 317.444 74.3494 317.531 74.4394C317.619 74.5294 317.663 74.6194 317.707 74.7094C317.795 74.8444 317.883 74.9344 317.883 74.9344C317.883 74.9344 317.839 74.8444 317.795 74.6644C317.707 74.4844 317.663 74.2595 317.487 73.9895C317.4 73.8545 317.312 73.7195 317.224 73.5396C317.092 73.4046 317.005 73.2696 316.873 73.0896C316.741 72.9547 316.566 72.8197 316.39 72.6847C316.215 72.5947 316.039 72.4597 315.82 72.4147L315.512 72.3248C315.424 72.2798 315.293 72.2798 315.205 72.2798C314.986 72.2348 314.81 72.2798 314.591 72.2798C314.415 72.3248 314.195 72.3248 314.02 72.3697C313.844 72.4147 313.713 72.4597 313.537 72.5497C313.054 72.7747 312.747 73.0896 312.747 73.0896Z" fill="#DC918B"/>
<path d="M304.888 18.824C304.888 18.824 307.127 23.6831 300.982 28.9022C294.047 34.7512 285.18 35.561 285.18 35.561C285.18 35.561 289.219 32.5016 288.472 29.1722C287.375 24.268 296.154 16.1694 296.154 16.1694L304.888 18.824Z" fill="#2B2E3A"/>
<path d="M284.743 5.86987C284.743 5.86987 281.802 6.72472 270.697 13.6984C266.045 16.6229 262.577 11.7638 262.577 11.7638C262.577 11.7638 259.592 23.7316 270.829 22.4718C282.066 21.1671 284.743 5.86987 284.743 5.86987Z" fill="#2B2E3A"/>
<path d="M320.649 102.289C320.649 102.289 315.338 105.213 312.265 105.438C309.192 105.663 309.807 113.132 309.588 115.157C309.588 115.157 316.742 114.122 319.463 112.007C322.185 109.893 323.15 108.228 323.15 108.228C323.15 108.228 323.502 103.864 323.063 102.064C322.931 101.614 320.605 100.354 320.605 100.354L320.649 102.289Z" fill="#31374C"/>
<path d="M307.084 104.625C307.084 104.625 306.382 104.94 305.899 105.614C305.416 106.289 306.514 110.834 306.338 111.958C306.163 113.083 308.708 114.928 308.708 114.928L309.323 114.388L308.972 106.829C308.972 106.334 308.621 105.884 308.138 105.749L308.094 104.4L307.084 104.625Z" fill="#31374C"/>
<path d="M309.98 114.976L309.717 114.886V114.256L309.059 114.031L308.751 114.526L308.444 114.481L307.391 117.046C307.259 117.361 307.435 117.721 307.742 117.811L308.664 118.126C308.971 118.216 309.322 118.036 309.41 117.676L309.98 114.976Z" fill="#E1E4F4"/>
<path d="M318.278 125.412C318.146 125.412 318.058 125.457 317.97 125.592L316.697 127.167L316.346 125.547C316.302 125.367 316.215 125.322 316.127 125.322C315.995 125.322 315.907 125.367 315.82 125.502L314.634 127.572L315.205 127.617L315.995 126.177L316.346 127.707L316.829 127.752L317.97 126.357L317.882 127.842L318.365 127.887L318.497 125.817C318.497 125.547 318.365 125.457 318.278 125.412Z" fill="white"/>
<path d="M314.02 125.547L313.406 127.481H313.933L314.547 125.547H314.02Z" fill="white"/>
<path d="M313.055 126.039C313.099 125.769 312.967 125.454 312.44 125.454L311.431 125.364L310.86 127.298L311.387 127.343L311.606 126.623H311.87L312.308 127.388L312.879 127.433L312.396 126.623C312.835 126.533 313.011 126.264 313.055 126.039ZM312.045 126.309L311.65 126.264L311.826 125.679L312.221 125.724C312.44 125.724 312.528 125.859 312.484 126.039C312.484 126.219 312.308 126.309 312.045 126.309Z" fill="white"/>
<path d="M320.561 127.928L321.087 127.973L320.736 126.129C320.692 125.904 320.561 125.859 320.429 125.859C320.341 125.859 320.253 125.904 320.166 125.994L318.761 127.793L319.288 127.838L319.551 127.433L320.473 127.478L320.561 127.928ZM319.771 127.164L320.297 126.489L320.429 127.208L319.771 127.164Z" fill="white"/>
<path d="M322.71 127.705C322.271 127.66 322.051 127.39 322.095 127.075C322.183 126.67 322.578 126.4 323.105 126.445C323.28 126.445 323.456 126.49 323.632 126.535L323.763 126.131C323.632 126.086 323.368 126.041 323.193 126.041C322.271 125.996 321.7 126.355 321.569 126.985C321.481 127.57 321.832 127.974 322.666 128.019C322.841 128.019 322.973 128.019 323.193 128.019L323.324 127.615C323.105 127.705 322.929 127.75 322.71 127.705Z" fill="white"/>
<path d="M300.675 145.254C300.675 145.254 299.841 144.489 299.753 143.859C299.665 143.23 300.28 142.24 300.28 142.24C300.28 142.24 299.753 141.475 300.016 140.53C300.28 139.54 300.894 139.135 300.894 139.135C300.894 139.135 300.104 138.37 300.368 137.471C300.631 136.526 301.64 136.211 302.957 136.391C302.957 136.391 310.331 136.526 311.297 137.381C312.658 138.55 314.413 141.97 314.413 141.97C315.642 143.14 315.247 148.404 315.247 148.404L311.911 147.954C310.902 149.034 303.967 148.944 303.308 148.629C301.86 147.999 301.509 147.909 300.587 147.099C299.973 146.514 300.675 145.254 300.675 145.254Z" fill="#FAC2A8"/>
<path d="M308.05 130.767C307.962 131.982 308.445 132.612 309.806 135.356C310.376 136.526 311.956 135.941 313.624 140.396C314.063 141.61 305.987 138.191 306.47 137.696C307.435 136.616 305.197 134.592 305.241 132.117C305.241 129.957 308.225 128.023 308.05 130.767Z" fill="#FAC2A8"/>
<path d="M302.123 136.438C302.123 136.438 306.029 136.123 306.688 137.563C307.346 138.958 306.732 139.678 305.942 139.768C305.942 139.768 306.556 140.262 306.424 141.297C306.293 142.332 305.415 142.467 304.493 142.602C303.571 142.737 301.113 142.332 301.113 142.332L302.123 136.438Z" fill="#FAC2A8"/>
<path d="M313.801 140.485L319.419 141.475L318.498 149.213L313.055 148.358L313.801 140.485Z" fill="#EF3F54"/>
<path d="M317.881 141.206C319.373 137.561 324.991 139.901 327.844 139.406C326.747 134.997 326.264 130.408 326.264 130.408L324.201 125.954C324.421 115.695 327.274 111.376 331.136 110.521C331.136 110.521 335.482 112.276 336.799 118.62C337.194 120.554 341.276 147.415 336.93 151.284C333.024 154.748 320.997 153.984 317.398 150.339L317.881 141.206Z" fill="#BD1A3B"/>
<path d="M317.879 141.206C318.055 140.756 318.274 140.351 318.626 140.036C318.977 139.721 319.372 139.496 319.811 139.316C320.689 139.001 321.61 138.956 322.488 138.956C323.41 139.001 324.288 139.091 325.166 139.136C326.044 139.226 326.965 139.271 327.799 139.136L327.624 139.406C327.229 137.921 326.921 136.437 326.658 134.907C326.395 133.422 326.175 131.892 326 130.363L326.044 130.498C325.341 129.013 324.639 127.483 323.981 125.998L323.937 125.954V125.909C323.981 124.379 324.068 122.849 324.288 121.319C324.463 119.79 324.771 118.305 325.253 116.82C325.385 116.46 325.517 116.1 325.649 115.74C325.78 115.38 325.956 115.02 326.131 114.705C326.307 114.346 326.482 114.031 326.702 113.716C326.921 113.401 327.141 113.086 327.404 112.816C327.887 112.231 328.458 111.736 329.116 111.331C329.774 110.926 330.477 110.656 331.223 110.521C330.521 110.701 329.818 111.016 329.204 111.421C328.589 111.871 328.063 112.366 327.624 112.951C326.702 114.121 326.131 115.56 325.692 116.955C325.253 118.395 325.034 119.88 324.858 121.409C324.683 122.894 324.595 124.424 324.551 125.954L324.507 125.819C325.21 127.303 325.868 128.743 326.526 130.228L326.57 130.318V130.363C326.746 131.847 326.965 133.377 327.185 134.862C327.448 136.347 327.755 137.831 328.063 139.316L328.107 139.541L327.887 139.586C326.965 139.721 326.044 139.631 325.166 139.496C324.288 139.406 323.366 139.271 322.488 139.226C321.61 139.181 320.689 139.181 319.855 139.406C318.977 139.766 318.231 140.351 317.879 141.206Z" fill="#E0363C"/>
<path d="M336.974 151.284C336.36 151.869 335.57 152.319 334.78 152.634C333.989 152.994 333.112 153.219 332.278 153.354C330.566 153.669 328.81 153.804 327.098 153.714C325.386 153.624 323.631 153.399 321.963 152.904C321.129 152.679 320.295 152.364 319.505 151.959C318.715 151.554 317.969 151.105 317.31 150.43L317.222 150.34V150.25C317.266 149.485 317.31 148.72 317.354 147.955L317.53 145.66C317.573 144.896 317.661 144.131 317.705 143.366C317.749 142.601 317.837 141.836 317.881 141.071C317.881 141.836 317.881 142.601 317.837 143.366C317.837 144.131 317.837 144.896 317.793 145.66L317.749 147.955C317.705 148.72 317.705 149.485 317.661 150.25L317.573 150.07C318.803 151.24 320.427 151.869 322.051 152.319C323.675 152.769 325.386 153.039 327.098 153.129C328.81 153.219 330.522 153.219 332.19 152.949C333.902 152.814 335.57 152.364 336.974 151.284Z" fill="#E0363C"/>
</g>
<defs>
<linearGradient id="paint0_linear" x1="294.072" y1="45.6803" x2="297.718" y2="73.4394" gradientUnits="userSpaceOnUse">
<stop stop-color="#FAC2A8"/>
<stop offset="0.2651" stop-color="#F7BCA5"/>
<stop offset="0.6038" stop-color="#EDAD9B"/>
<stop offset="0.981" stop-color="#DD938C"/>
<stop offset="1" stop-color="#DC918B"/>
</linearGradient>
</defs>
</svg>